<?xml version="1.0" standalone="no"?><!DOCTYPE svg PUBLIC "-//W3C//DTD SVG 1.1//EN" "http://www.w3.org/Graphics/SVG/1.1/DTD/svg11.dtd"><svg class="icon" width="200px" height="200.00px" viewBox="0 0 1024 1024" version="1.1" xmlns="http://www.w3.org/2000/svg"><path fill="#515151" d="M1003.595274 126.468366c0 13.969153-11.275811 25.244964-25.244964 25.244964h-755.752559c-13.969153 0-25.244964-11.275811-25.244964-25.244964v-0.499373c0-13.969153 11.275811-25.244964 25.244964-25.244964h755.85182c13.969153 0 25.244964 11.275811 25.244964 25.244964v0.499373h-0.099261zM1003.595274 504.643452c0 13.969153-11.275811 25.244964-25.244964 25.244964h-755.752559c-13.969153 0-25.244964-11.275811-25.244964-25.244964v-0.499374c0-13.969153 11.275811-25.244964 25.244964-25.244964h755.85182c13.969153 0 25.244964 11.275811 25.244964 25.244964v0.499374h-0.099261zM1003.595274 882.81956c0 13.969153-11.275811 25.244964-25.244964 25.244964h-755.752559c-13.969153 0-25.244964-11.275811-25.244964-25.244964v-0.499373c0-13.969153 11.275811-25.244964 25.244964-25.244964h755.85182c13.969153 0 25.244964 11.275811 25.244964 25.244964v0.499373h-0.099261zM88.091314 122.276904c0 20.85498-16.963347 37.817304-37.817304 37.817304s-37.817304-16.963347-37.817304-37.817304c0-20.85498 16.863063-37.817304 37.817304-37.817304 20.853957 0 37.817304 16.963347 37.817304 37.817304zM88.091314 500.453013c0 20.85498-16.963347 37.817304-37.817304 37.817304s-37.817304-16.963347-37.817304-37.817304c0-20.85498 16.863063-37.817304 37.817304-37.817304 20.853957-0.001023 37.817304 16.863063 37.817304 37.817304zM88.091314 878.528837c0 20.85498-16.963347 37.817304-37.817304 37.817304s-37.817304-16.963347-37.817304-37.817304c0-20.85498 16.863063-37.817304 37.817304-37.817303 20.853957-0.001023 37.817304 16.962324 37.817304 37.817303z" /></svg>