<?xml version="1.0" standalone="no"?><!DOCTYPE svg PUBLIC "-//W3C//DTD SVG 1.1//EN" "http://www.w3.org/Graphics/SVG/1.1/DTD/svg11.dtd"><svg class="icon" width="200px" height="200.00px" viewBox="0 0 1024 1024" version="1.1" xmlns="http://www.w3.org/2000/svg"><path fill="#515151" d="M661.333333 597.333333l-33.706667 0-11.946667-11.52C657.493333 537.173333 682.666667 474.026667 682.666667 405.333333 682.666667 252.16 558.506667 128 405.333333 128S128 252.16 128 405.333333 252.16 682.666667 405.333333 682.666667c68.693333 0 131.84-25.173333 180.48-66.986667L597.333333 627.626667l0 33.706667 213.333333 212.906667L874.24 810.666667 661.333333 597.333333zM405.333333 597.333333C299.093333 597.333333 213.333333 511.573333 213.333333 405.333333S299.093333 213.333333 405.333333 213.333333 597.333333 299.093333 597.333333 405.333333 511.573333 597.333333 405.333333 597.333333z" /></svg>